# xmcd
#
# Track frame offsets:
#	150
#	21622
#	57486
#	110152
#	173110
#
# Disc length: 2760 seconds
#
# Revision: 1
# Processed by: cddbd v1.5.2PL0 Copyright (c) Steve Scherf et al.
# Submitted via: audiograbber 1.83.01
#
DISCID=470ac605
DTITLE=Grateful Dead - 80-06-20 West High Auditorium, Anchorage AK
DYEAR=1900
DGENRE=
TTITLE0=Big Railroad Blues
TTITLE1=Samson and Delilah
TTITLE2=Terrapin Station
TTITLE3=Playing In The Band
TTITLE4=Drums
EXTD=
EXTT0=
EXTT1=
EXTT2=
EXTT3=
EXTT4=
PLAYORDER=
